<svg xmlns="http://www.w3.org/2000/svg" viewBox="0 0 800 560">
  <defs>
    <linearGradient id="bgGrad" x1="0" y1="0" x2="1" y2="1">
      <stop offset="0%" stop-color="#0f172a" />
      <stop offset="100%" stop-color="#020617" />
    </linearGradient>
    <linearGradient id="shapeGrad" x1="0" y1="0" x2="1" y2="1">
      <stop offset="0%" stop-color="#2563eb" />
      <stop offset="100%" stop-color="#60a5fa" />
    </linearGradient>
  </defs>
  <rect width="800" height="560" rx="40" fill="url(#bgGrad)" />
  <circle cx="170" cy="140" r="85" fill="rgba(96,165,250,0.12)" />
  <circle cx="610" cy="160" r="75" fill="rgba(37,99,235,0.18)" />
  <rect x="220" y="210" width="360" height="240" rx="35" fill="#0b1120" stroke="#2563eb" stroke-width="6" />
  <path d="M260 250 h280" stroke="#60a5fa" stroke-width="8" stroke-linecap="round" opacity="0.9"/>
  <path d="M260 300 h220" stroke="#93c5fd" stroke-width="8" stroke-linecap="round" opacity="0.9"/>
  <path d="M260 340 h180" stroke="#c7d2fe" stroke-width="8" stroke-linecap="round" opacity="0.9"/>
  <circle cx="310" cy="390" r="20" fill="#60a5fa" />
  <circle cx="450" cy="390" r="20" fill="#93c5fd" />
  <path d="M300 220 l40 -40 l80 0 l40 40" fill="none" stroke="url(#shapeGrad)" stroke-width="12" stroke-linecap="round" stroke-linejoin="round"/>
  <path d="M450 220 v-60" stroke="#60a5fa" stroke-width="12" stroke-linecap="round"/>
  <path d="M320 310 a40 40 0 1 0 80 0 a40 40 0 1 0 -80 0" fill="#0f172a" stroke="#2563eb" stroke-width="8" />
  <path d="M335 310 h50" stroke="#c7d2fe" stroke-width="6" stroke-linecap="round" />
  <path d="M370 300 v40" stroke="#c7d2fe" stroke-width="6" stroke-linecap="round" />
  <circle cx="650" cy="440" r="40" fill="#2563eb" opacity="0.15" />
  <text x="260" y="120" font-size="42" fill="#fff" font-family="Outfit, sans-serif" font-weight="800">Trusted</text>
  <text x="260" y="170" font-size="32" fill="#93c5fd" font-family="Outfit, sans-serif" font-weight="700">Verification</text>
  <text x="260" y="205" font-size="20" fill="#cbd5e1" font-family="Inter, sans-serif">Secure operations for EV and finance teams.</text>
</svg>