<svg xmlns="http://www.w3.org/2000/svg" viewBox="0 0 800 560">
  <defs>
    <linearGradient id="heroGradient" x1="0" y1="0" x2="1" y2="1">
      <stop offset="0%" stop-color="#1e3a8a"/>
      <stop offset="100%" stop-color="#2563eb"/>
    </linearGradient>
    <linearGradient id="softGlow" x1="0" y1="0" x2="1" y2="1">
      <stop offset="0%" stop-color="#60a5fa" stop-opacity="0.6"/>
      <stop offset="100%" stop-color="#0f172a" stop-opacity="0"/>
    </linearGradient>
  </defs>
  <rect width="800" height="560" rx="40" fill="#07101f" />
  <circle cx="200" cy="140" r="120" fill="url(#softGlow)" />
  <circle cx="620" cy="110" r="80" fill="#1f2937" />
  <path d="M120 380 Q200 280 300 380 T520 380" fill="none" stroke="#60a5fa" stroke-width="8" stroke-linecap="round" opacity="0.8"/>
  <path d="M180 420 L260 350 L360 420" fill="none" stroke="#2563eb" stroke-width="12" stroke-linecap="round"/>
  <rect x="120" y="200" width="260" height="160" rx="32" fill="#0f172a" stroke="#2563eb" stroke-width="6"/>
  <circle cx="230" cy="270" r="20" fill="#60a5fa"/>
  <circle cx="320" cy="300" r="14" fill="#bfdbfe"/>
  <circle cx="280" cy="330" r="10" fill="#93c5fd"/>
  <path d="M160 220 L240 220 L240 240 L160 240 Z" fill="#2563eb"/>
  <path d="M500 180 h120 a24 24 0 0 1 24 24 v120 a24 24 0 0 1 -24 24 h-120 a24 24 0 0 1 -24 -24 v-120 a24 24 0 0 1 24 -24 z" fill="url(#heroGradient)" opacity="0.95"/>
  <path d="M520 220 h80 v20 h-80 z" fill="#c7d2fe"/>
  <path d="M520 260 h80 v20 h-80 z" fill="#93c5fd"/>
  <path d="M540 310 h40 v50 h-40 z" fill="#e0f2fe"/>
  <circle cx="580" cy="320" r="10" fill="#fff"/>
  <text x="120" y="90" font-size="38" fill="#fff" font-family="Outfit, sans-serif" font-weight="700">Secure.</text>
  <text x="120" y="140" font-size="38" fill="#93c5fd" font-family="Outfit, sans-serif" font-weight="700">Verified.</text>
  <text x="120" y="190" font-size="28" fill="#cbd5e1" font-family="Inter, sans-serif">Contact center operations built for growth.</text>
</svg>